<?xml version="1.0" encoding="UTF-8"?>
<svg id="Layer_2" data-name="Layer 2" xmlns="http://www.w3.org/2000/svg" viewBox="0 0 64 64">
  <defs>
    <style>
      .cls-1 {
        fill: #18974c;
      }

      .cls-2 {
        fill: #3b6fb6;
      }

      .cls-3 {
        fill: #fff;
      }

      .cls-4 {
        fill: #54585a;
      }

      .cls-5 {
        fill: #d41645;
      }
    </style>
  </defs>
  <rect class="cls-3" width="64" height="64"/>
  <path class="cls-4" d="M60.62,3.38v57.25H3.38V3.38h57.25M64,0H0v64h64V0h0Z"/>
  <rect class="cls-5" x="6.76" y="37.09" width="20.16" height="20.16"/>
  <rect class="cls-2" x="42.05" y="45.51" width=".05" height="11.75"/>
  <polygon class="cls-2" points="57.23 6.79 6.76 6.79 6.76 18.53 18.51 18.53 19.74 18.53 45.48 18.53 45.48 45.51 45.47 45.51 45.47 57.25 57.23 57.25 57.23 6.79"/>
  <polygon class="cls-1" points="18.51 21.96 6.76 21.96 6.76 33.71 18.51 33.71 18.51 33.71 19.74 33.71 30.31 33.71 30.31 45.51 30.3 45.51 30.3 57.25 42.05 57.25 42.05 45.51 42.05 21.96 18.51 21.96"/>
</svg>