<?xml version="1.0" encoding="UTF-8" standalone="no"?>
<svg
   width="728"
   height="792"
   viewBox="0 0 728 792"
   version="1.1"
   id="svg5"
   sodipodi:docname="EMPIAR_logo_manual.svg"
   inkscape:version="1.4.3 (0d15f75, 2025-12-25)"
   xmlns:inkscape="http://www.inkscape.org/namespaces/inkscape"
   xmlns:sodipodi="http://sodipodi.sourceforge.net/DTD/sodipodi-0.dtd"
   xmlns="http://www.w3.org/2000/svg"
   xmlns:svg="http://www.w3.org/2000/svg">
  <defs
     id="defs5" />
  <sodipodi:namedview
     id="namedview5"
     pagecolor="#ffffff"
     bordercolor="#000000"
     borderopacity="0.25"
     inkscape:showpageshadow="2"
     inkscape:pageopacity="0.0"
     inkscape:pagecheckerboard="0"
     inkscape:deskcolor="#d1d1d1"
     inkscape:zoom="1.030303"
     inkscape:cx="366.39706"
     inkscape:cy="369.30882"
     inkscape:window-width="1512"
     inkscape:window-height="854"
     inkscape:window-x="0"
     inkscape:window-y="38"
     inkscape:window-maximized="0"
     inkscape:current-layer="svg5" />
  <path
     d="m 365.55989,88.14454 c 41.52723,0.09285 173.19247,34.59787 152.34868,70.51508 L 385.02846,387.63387 c -20.84367,35.91773 -41.60723,35.87157 -62.29066,-0.13848 L 190.88058,157.9308 C 170.19663,121.92087 311.64787,87.46201 353.17549,87.55421 Z"
     fill="#58a64b"
     id="path1"
     style="stroke-width:0.8"
     sodipodi:nodetypes="cccsccc" />
  <path
     d="m 646.03598,266.28127 c 18.08604,31.83141 50.55917,163.12085 13.94881,162.86832 L 426.5957,427.53642 C 389.98522,427.28337 380.94214,411.3674 399.46646,379.78853 L 517.55838,178.47331 c 18.52391,-31.57824 109.623,55.90128 127.70903,87.73269 z"
     fill="#75b361"
     id="path2"
     style="stroke-width:0.8"
     sodipodi:nodetypes="ccscccc" />
  <path
     d="m 597.48692,567.68957 c -15.79423,27.06655 -92.61006,112.40575 -108.15339,85.19406 l -99.08885,-173.4755 c -15.54333,-27.21169 -7.64595,-40.745 23.69213,-40.59993 l 199.77816,0.92405 c 31.33755,0.14513 0.28569,100.13333 -15.50854,127.19988 z"
     fill="#d33b56"
     id="path3"
     style="stroke-width:0.8"
     sodipodi:nodetypes="ccccccc" />
  <path
     d="m 459.72958,622.22037 c 12.95661,22.36537 -81.81208,47.15507 -107.65903,47.19263 l -0.74494,-0.72911 c -25.84695,0.0375 -108.03114,-23.7628 -95.1408,-46.1657 l 82.17897,-142.81956 c 12.89085,-22.40281 25.81433,-22.42157 38.77042,-0.0563 z"
     fill="#93c382"
     id="path4"
     style="stroke-width:0.8"
     sodipodi:nodetypes="ccccccc" />
  <circle
     cx="231.44153"
     cy="512.47424"
     r="64.604797"
     fill="#bedbb0"
     id="circle4"
     style="stroke-width:0.8" />
  <circle
     cx="247.63483"
     cy="389.18625"
     r="51.16"
     fill="#bedbb0"
     id="circle5"
     style="stroke-width:0.8" />
</svg>
